<mxfile host="www.draw.io" modified="2020-02-11T07:48:03.329Z" agent="Mozilla/5.0 (X11; Linux x86_64) AppleWebKit/537.36 (KHTML, like Gecko) Chrome/79.0.3945.130 Safari/537.36" etag="9G6O_BA7YQBvvN7VDe_s" version="12.6.7" type="github">
  <diagram id="C5RBs43oDa-KdzZeNtuy" name="Page-1">
    <mxGraphModel dx="1422" dy="790" grid="1" gridSize="10" guides="1" tooltips="1" connect="1" arrows="1" fold="1" page="1" pageScale="1" pageWidth="827" pageHeight="1169" math="0" shadow="0">
      <root>
        <mxCell id="WIyWlLk6GJQsqaUBKTNV-0"/>
        <mxCell id="WIyWlLk6GJQsqaUBKTNV-1" parent="WIyWlLk6GJQsqaUBKTNV-0"/>
        <mxCell id="XydmrX_YFhf04H4YOuTL-10" style="edgeStyle=orthogonalEdgeStyle;rounded=0;orthogonalLoop=1;jettySize=auto;html=1;entryX=0.5;entryY=0;entryDx=0;entryDy=0;" edge="1" parent="WIyWlLk6GJQsqaUBKTNV-1" source="WIyWlLk6GJQsqaUBKTNV-3" target="XydmrX_YFhf04H4YOuTL-1">
          <mxGeometry relative="1" as="geometry"/>
        </mxCell>
        <mxCell id="WIyWlLk6GJQsqaUBKTNV-3" value="电话进线" style="rounded=1;whiteSpace=wrap;html=1;fontSize=12;glass=0;strokeWidth=1;shadow=0;" parent="WIyWlLk6GJQsqaUBKTNV-1" vertex="1">
          <mxGeometry x="160" y="80" width="120" height="40" as="geometry"/>
        </mxCell>
        <mxCell id="XydmrX_YFhf04H4YOuTL-3" style="edgeStyle=orthogonalEdgeStyle;rounded=0;orthogonalLoop=1;jettySize=auto;html=1;exitX=0;exitY=0.5;exitDx=0;exitDy=0;" edge="1" parent="WIyWlLk6GJQsqaUBKTNV-1" source="XydmrX_YFhf04H4YOuTL-1" target="XydmrX_YFhf04H4YOuTL-2">
          <mxGeometry relative="1" as="geometry"/>
        </mxCell>
        <mxCell id="XydmrX_YFhf04H4YOuTL-4" value="不在服务时间" style="text;html=1;align=center;verticalAlign=middle;resizable=0;points=[];labelBackgroundColor=#ffffff;" vertex="1" connectable="0" parent="XydmrX_YFhf04H4YOuTL-3">
          <mxGeometry x="-0.4235" y="-2" relative="1" as="geometry">
            <mxPoint x="-12" y="42" as="offset"/>
          </mxGeometry>
        </mxCell>
        <mxCell id="XydmrX_YFhf04H4YOuTL-8" style="edgeStyle=orthogonalEdgeStyle;rounded=0;orthogonalLoop=1;jettySize=auto;html=1;entryX=0.5;entryY=0;entryDx=0;entryDy=0;exitX=1;exitY=0.5;exitDx=0;exitDy=0;" edge="1" parent="WIyWlLk6GJQsqaUBKTNV-1" source="XydmrX_YFhf04H4YOuTL-1" target="XydmrX_YFhf04H4YOuTL-7">
          <mxGeometry relative="1" as="geometry">
            <mxPoint x="360" y="200" as="sourcePoint"/>
          </mxGeometry>
        </mxCell>
        <mxCell id="XydmrX_YFhf04H4YOuTL-9" value="在服务时间" style="text;html=1;align=center;verticalAlign=middle;resizable=0;points=[];labelBackgroundColor=#ffffff;" vertex="1" connectable="0" parent="XydmrX_YFhf04H4YOuTL-8">
          <mxGeometry x="-0.4118" y="2" relative="1" as="geometry">
            <mxPoint x="15" y="42" as="offset"/>
          </mxGeometry>
        </mxCell>
        <mxCell id="XydmrX_YFhf04H4YOuTL-1" value="中继号服务时间判断" style="rhombus;whiteSpace=wrap;html=1;" vertex="1" parent="WIyWlLk6GJQsqaUBKTNV-1">
          <mxGeometry x="105" y="180" width="230" height="40" as="geometry"/>
        </mxCell>
        <mxCell id="XydmrX_YFhf04H4YOuTL-2" value="播放不在服务时间&lt;br&gt;语音" style="rounded=1;whiteSpace=wrap;html=1;fontSize=12;glass=0;strokeWidth=1;shadow=0;" vertex="1" parent="WIyWlLk6GJQsqaUBKTNV-1">
          <mxGeometry x="10" y="280" width="120" height="40" as="geometry"/>
        </mxCell>
        <mxCell id="XydmrX_YFhf04H4YOuTL-13" style="edgeStyle=orthogonalEdgeStyle;rounded=0;orthogonalLoop=1;jettySize=auto;html=1;entryX=0.5;entryY=0;entryDx=0;entryDy=0;" edge="1" parent="WIyWlLk6GJQsqaUBKTNV-1" source="XydmrX_YFhf04H4YOuTL-7" target="XydmrX_YFhf04H4YOuTL-11">
          <mxGeometry relative="1" as="geometry"/>
        </mxCell>
        <mxCell id="XydmrX_YFhf04H4YOuTL-15" style="edgeStyle=orthogonalEdgeStyle;rounded=0;orthogonalLoop=1;jettySize=auto;html=1;" edge="1" parent="WIyWlLk6GJQsqaUBKTNV-1" source="XydmrX_YFhf04H4YOuTL-7" target="XydmrX_YFhf04H4YOuTL-12">
          <mxGeometry relative="1" as="geometry"/>
        </mxCell>
        <mxCell id="XydmrX_YFhf04H4YOuTL-7" value="ivr服务时间" style="rounded=1;whiteSpace=wrap;html=1;fontSize=12;glass=0;strokeWidth=1;shadow=0;" vertex="1" parent="WIyWlLk6GJQsqaUBKTNV-1">
          <mxGeometry x="330" y="280" width="120" height="40" as="geometry"/>
        </mxCell>
        <mxCell id="XydmrX_YFhf04H4YOuTL-11" value="当前时间&lt;br&gt;对应的ivr" style="rounded=1;whiteSpace=wrap;html=1;fontSize=12;glass=0;strokeWidth=1;shadow=0;" vertex="1" parent="WIyWlLk6GJQsqaUBKTNV-1">
          <mxGeometry x="215" y="360" width="120" height="40" as="geometry"/>
        </mxCell>
        <mxCell id="XydmrX_YFhf04H4YOuTL-12" value="没有配置&lt;br&gt;默认的ivr" style="rounded=1;whiteSpace=wrap;html=1;fontSize=12;glass=0;strokeWidth=1;shadow=0;" vertex="1" parent="WIyWlLk6GJQsqaUBKTNV-1">
          <mxGeometry x="440" y="360" width="120" height="40" as="geometry"/>
        </mxCell>
      </root>
    </mxGraphModel>
  </diagram>
</mxfile>
